<svg width="40" height="40" viewBox="22 22 20 20" fill="none" xmlns="http://www.w3.org/2000/svg">
  <path d="M32.9995 28C32.9995 28.5523 32.5518 29 31.9995 29C31.4473 29 30.9995 28.5523 30.9995 28C30.9995 27.4477 31.4473 27 31.9995 27C32.5518 27 32.9995 27.4477 32.9995 28Z" fill="#27272A"/>
  <path d="M32.8997 31.5C32.8997 31.0029 32.4967 30.6 31.9997 30.6C31.5026 30.6 31.0997 31.0029 31.0997 31.5V36C31.0997 36.4971 31.5026 36.9 31.9997 36.9C32.4967 36.9 32.8997 36.4971 32.8997 36V31.5Z" fill="#27272A"/>
  <path fill-rule="evenodd" clip-rule="evenodd" d="M22.0996 32.0001C22.0996 26.5325 26.532 22.1001 31.9996 22.1001C37.4672 22.1001 41.8995 26.5325 41.8995 32.0001C41.8995 37.4677 37.4672 41.9001 31.9996 41.9001C26.532 41.9001 22.0996 37.4677 22.0996 32.0001ZM31.9996 23.9001C27.5261 23.9001 23.8996 27.5266 23.8996 32.0001C23.8996 36.4736 27.5261 40.1001 31.9996 40.1001C36.473 40.1001 40.0995 36.4736 40.0995 32.0001C40.0995 27.5266 36.473 23.9001 31.9996 23.9001Z" fill="#27272A"/>
</svg>
