<svg width="24" height="24" viewBox="0 0 24 24" fill="none" xmlns="http://www.w3.org/2000/svg">
<path d="M4.86321 4.86321C5.21468 4.51174 5.78453 4.51174 6.136 4.86321L11.9996 10.7268L17.8632 4.86321C18.2146 4.51174 18.7845 4.51174 19.136 4.86321C19.4874 5.21468 19.4874 5.78453 19.136 6.13601L13.2724 11.9996L19.136 17.8632C19.4874 18.2147 19.4874 18.7845 19.136 19.136C18.7845 19.4875 18.2146 19.4875 17.8632 19.136L11.9996 13.2724L6.136 19.136C5.78453 19.4875 5.21468 19.4875 4.86321 19.136C4.51174 18.7845 4.51174 18.2147 4.86321 17.8632L10.7268 11.9996L4.86321 6.13601C4.51174 5.78453 4.51174 5.21468 4.86321 4.86321Z" fill="#71717A"/>
</svg>
