<svg width="24" height="24" viewBox="0 0 24 24" fill="none" xmlns="http://www.w3.org/2000/svg">
<path d="M11.9999 14.9016C11.5028 14.9016 11.0999 14.4986 11.0999 14.0016V3.62157L9.00002 5.64902C8.64244 5.99428 8.07268 5.98428 7.72743 5.6267C7.38217 5.26911 7.39217 4.69935 7.74975 4.3541L11.3497 0.878334C11.5135 0.707174 11.7442 0.600586 11.9999 0.600586C12.2555 0.600586 12.4863 0.707185 12.6501 0.878359L16.25 4.3541C16.6076 4.69935 16.6176 5.26911 16.2723 5.6267C15.9271 5.98428 15.3573 5.99428 14.9998 5.64902L12.8999 3.62157V14.0016C12.8999 14.4986 12.4969 14.9016 11.9999 14.9016Z" fill="#111111CC"/>
<path d="M7.10023 7.60033C7.59709 7.60033 7.99988 8.00312 7.99988 8.49998C7.99988 8.99684 7.59709 9.39962 7.10023 9.39962H6.55015C5.73559 9.39962 5.54175 9.41073 5.41023 9.45346C5.07535 9.56227 4.8128 9.82482 4.70399 10.1597C4.66125 10.2912 4.65015 10.4851 4.65015 11.2996V18.6996C4.65015 19.5142 4.66125 19.708 4.70399 19.8395C4.8128 20.1744 5.07535 20.437 5.41023 20.5458C5.54175 20.5885 5.73559 20.5996 6.55015 20.5996H17.4501C18.2647 20.5996 18.4585 20.5885 18.5901 20.5458C18.9249 20.437 19.1875 20.1744 19.2963 19.8395C19.339 19.708 19.3501 19.5142 19.3501 18.6996V11.2996C19.3501 10.4851 19.339 10.2912 19.2963 10.1597C19.1875 9.82482 18.9249 9.56227 18.5901 9.45346C18.4585 9.41073 18.2647 9.39962 17.4501 9.39962H16.8995C16.4027 9.39962 15.9999 8.99684 15.9999 8.49998C15.9999 8.00312 16.4027 7.60033 16.8995 7.60033H17.085C17.6149 7.60032 18.0661 7.60031 18.4365 7.63057C18.8257 7.66237 19.2043 7.732 19.5662 7.91642C20.1119 8.19445 20.5555 8.63809 20.8335 9.18376C21.0179 9.5457 21.0876 9.92429 21.1194 10.3135C21.1496 10.6839 21.1496 11.135 21.1496 11.6649V18.3357C21.1496 18.8656 21.1496 19.3168 21.1194 19.6872C21.0876 20.0764 21.0179 20.455 20.8335 20.8169C20.5555 21.3626 20.1119 21.8062 19.5662 22.0843C19.2043 22.2687 18.8257 22.3383 18.4365 22.3701C18.0661 22.4004 17.6149 22.4004 17.085 22.4003H6.91421C6.38434 22.4004 5.93316 22.4004 5.56273 22.3701C5.17357 22.3383 4.79497 22.2687 4.43304 22.0843C3.88737 21.8062 3.44373 21.3626 3.16569 20.8169C2.98128 20.455 2.91165 20.0764 2.87985 19.6872C2.84959 19.3168 2.8496 18.8657 2.84961 18.3358V11.6649C2.8496 11.1351 2.84959 10.6839 2.87985 10.3135C2.91165 9.92429 2.98128 9.5457 3.16569 9.18376C3.44373 8.63809 3.88737 8.19445 4.43304 7.91642C4.79497 7.732 5.17357 7.66237 5.56273 7.63057C5.93314 7.60031 6.38429 7.60032 6.91412 7.60033H7.10023Z" fill="#111111CC"/>
</svg>
