<svg width="32" height="32" viewBox="0 0 32 32" fill="none" xmlns="http://www.w3.org/2000/svg">
<path fill-rule="evenodd" clip-rule="evenodd" d="M8.46661 11.666C8.46661 9.89871 9.89929 8.46602 11.6666 8.46602C13.4339 8.46602 14.8666 9.89871 14.8666 11.666C14.8666 13.4333 13.4339 14.866 11.6666 14.866C9.89929 14.866 8.46661 13.4333 8.46661 11.666ZM11.6666 10.866C11.2248 10.866 10.8666 11.2242 10.8666 11.666C10.8666 12.1078 11.2248 12.466 11.6666 12.466C12.1084 12.466 12.4666 12.1078 12.4666 11.666C12.4666 11.2242 12.1084 10.866 11.6666 10.866Z" fill="#27272A"/>
<path fill-rule="evenodd" clip-rule="evenodd" d="M11.0165 3.4668C9.93914 3.46679 9.05795 3.46678 8.34187 3.52528C7.60066 3.58584 6.93122 3.71502 6.30604 4.03357C5.3276 4.53211 4.5321 5.32761 4.03356 6.30605C3.71502 6.93123 3.58584 7.60067 3.52528 8.34189C3.46677 9.05799 3.46678 9.93911 3.4668 11.0165V20.9837C3.46678 22.0611 3.46677 22.9423 3.52528 23.6584C3.58584 24.3996 3.71502 25.069 4.03356 25.6942C4.5321 26.6727 5.3276 27.4682 6.30604 27.9667C6.93122 28.2853 7.60066 28.4144 8.34187 28.475C9.05797 28.5335 9.9391 28.5335 11.0165 28.5335H20.9837C22.0611 28.5335 22.9422 28.5335 23.6583 28.475C24.3995 28.4144 25.069 28.2853 25.6941 27.9667C26.6726 27.4682 27.4681 26.6727 27.9666 25.6942C28.2852 25.069 28.4143 24.3996 28.4749 23.6584C28.5334 22.9423 28.5334 22.0611 28.5334 20.9837V11.0165C28.5334 9.93913 28.5334 9.05799 28.4749 8.34189C28.4143 7.60067 28.2852 6.93123 27.9666 6.30605C27.4681 5.32761 26.6726 4.53211 25.6941 4.03357C25.069 3.71502 24.3995 3.58584 23.6583 3.52528C22.9422 3.46678 22.0611 3.46679 20.9838 3.4668H11.0165ZM7.39561 6.17198C7.62607 6.05456 7.94451 5.96575 8.53731 5.91731C9.14411 5.86773 9.92687 5.8668 11.0668 5.8668H20.9334C22.0733 5.8668 22.8561 5.86773 23.4629 5.91731C24.0557 5.96575 24.3741 6.05456 24.6046 6.17198C25.1314 6.44043 25.5598 6.86877 25.8282 7.39563C25.9456 7.62609 26.0344 7.94453 26.0829 8.53733C26.1325 9.14414 26.1334 9.9269 26.1334 11.0668V14.4373L25.832 14.1359C25.3325 13.6363 24.9071 13.2109 24.5293 12.8902C24.1324 12.5533 23.7098 12.262 23.1947 12.0946C22.4181 11.8423 21.5816 11.8423 20.805 12.0946C20.2899 12.262 19.8673 12.5533 19.4704 12.8902C19.0927 13.2109 18.6673 13.6362 18.1678 14.1358L6.8444 25.4592C6.56816 25.2224 6.33908 24.9326 6.17197 24.6046C6.05454 24.3742 5.96573 24.0557 5.9173 23.4629C5.86772 22.8561 5.86679 22.0734 5.86679 20.9335V11.0668C5.86679 9.9269 5.86772 9.14414 5.9173 8.53733C5.96573 7.94453 6.05454 7.62609 6.17197 7.39563C6.44041 6.86877 6.86876 6.44043 7.39561 6.17198ZM9.57143 26.1263C9.99236 26.1332 10.4827 26.1335 11.0668 26.1335H20.9334C22.0733 26.1335 22.8561 26.1325 23.4629 26.083C24.0557 26.0345 24.3741 25.9457 24.6046 25.8283C25.1314 25.5598 25.5598 25.1315 25.8282 24.6046C25.9456 24.3742 26.0344 24.0557 26.0829 23.4629C26.1325 22.8561 26.1334 22.0734 26.1334 20.9335V17.8314L24.1683 15.8663C23.6263 15.3243 23.2701 14.9695 22.9761 14.7198C22.6927 14.4792 22.5469 14.4076 22.4531 14.3771C22.1585 14.2814 21.8412 14.2814 21.5466 14.3771C21.4529 14.4076 21.307 14.4792 21.0236 14.7198C20.7296 14.9695 20.3734 15.3243 19.8314 15.8663L9.57143 26.1263Z" fill="#27272A"/>
</svg>
