<svg width="196" height="64" viewBox="0 0 196 64" fill="none" xmlns="http://www.w3.org/2000/svg">
<rect x="0.5" y="0.5" width="195" height="63" rx="4.5" fill="#FAFAFA"/>
<rect x="0.5" y="0.5" width="195" height="63" rx="4.5" stroke="#9747FF" stroke-dasharray="10 5"/>
<path d="M23.3632 27.3632C23.7147 27.0117 24.2845 27.0117 24.636 27.3632L31.9996 34.7268L39.3632 27.3632C39.7147 27.0117 40.2845 27.0117 40.636 27.3632C40.9875 27.7147 40.9875 28.2845 40.636 28.636L32.636 36.636C32.2845 36.9875 31.7147 36.9875 31.3632 36.636L23.3632 28.636C23.0117 28.2845 23.0117 27.7147 23.3632 27.3632Z" fill="#27272A"/>
<path d="M67.081 27.581C67.5886 27.0733 68.4118 27.0733 68.9194 27.581L76.0002 34.6617L83.081 27.581C83.5886 27.0733 84.4118 27.0733 84.9194 27.581C85.4271 28.0886 85.4271 28.9118 84.9194 29.4194L76.9194 37.4194C76.4118 37.9271 75.5886 37.9271 75.081 37.4194L67.081 29.4194C66.5733 28.9118 66.5733 28.0886 67.081 27.581Z" fill="#27272A"/>
<path d="M112.363 28.3637C112.715 28.0122 113.285 28.0122 113.636 28.3637L120 34.7273L126.363 28.3637C126.715 28.0122 127.285 28.0122 127.636 28.3637C127.987 28.7152 127.987 29.285 127.636 29.6365L120.636 36.6365C120.285 36.988 119.715 36.988 119.363 36.6365L112.363 29.6365C112.012 29.285 112.012 28.7152 112.363 28.3637Z" fill="#27272A"/>
<path d="M156.081 28.081C156.589 27.5733 157.412 27.5733 157.919 28.081L164 34.1617L170.081 28.081C170.589 27.5733 171.412 27.5733 171.919 28.081C172.427 28.5886 172.427 29.4118 171.919 29.9194L164.919 36.9194C164.412 37.4271 163.589 37.4271 163.081 36.9194L156.081 29.9194C155.573 29.4118 155.573 28.5886 156.081 28.081Z" fill="#27272A"/>
</svg>
