<svg width="108" height="64" viewBox="0 0 108 64" fill="none" xmlns="http://www.w3.org/2000/svg">
<rect x="0.5" y="0.5" width="107" height="63" rx="4.5" fill="#FAFAFA"/>
<rect x="0.5" y="0.5" width="107" height="63" rx="4.5" stroke="#9747FF" stroke-dasharray="10 5"/>
<path d="M31.9996 23.103C32.4966 23.103 32.8996 23.506 32.8996 24.003V31.103H39.9995C40.4966 31.103 40.8995 31.506 40.8995 32.003C40.8995 32.5001 40.4966 32.903 39.9995 32.903H32.8996V40.003C32.8996 40.5001 32.4966 40.903 31.9996 40.903C31.5025 40.903 31.0996 40.5001 31.0996 40.003V32.903H23.9996C23.5026 32.903 23.0996 32.5001 23.0996 32.003C23.0996 31.506 23.5026 31.103 23.9996 31.103H31.0996V24.003C31.0996 23.506 31.5025 23.103 31.9996 23.103Z" fill="#27272A"/>
<path d="M75.9992 22.7021C76.7172 22.7021 77.2992 23.2842 77.2992 24.0021V30.7021H83.9992C84.7172 30.7021 85.2992 31.2842 85.2992 32.0021C85.2992 32.7201 84.7172 33.3021 83.9992 33.3021H77.2992V40.0021C77.2992 40.7201 76.7172 41.3021 75.9992 41.3021C75.2812 41.3021 74.6992 40.7201 74.6992 40.0021V33.3021H67.9992C67.2812 33.3021 66.6992 32.7201 66.6992 32.0021C66.6992 31.2842 67.2812 30.7021 67.9992 30.7021H74.6992V24.0021C74.6992 23.2842 75.2812 22.7021 75.9992 22.7021Z" fill="#27272A"/>
</svg>
