<svg width="24" height="24" viewBox="0 0 24 24" fill="none" xmlns="http://www.w3.org/2000/svg">
<path fill-rule="evenodd" clip-rule="evenodd" d="M9.40034 1.7501C9.40034 1.25304 8.9974 0.850098 8.50035 0.850098C8.00329 0.850098 7.60035 1.25304 7.60035 1.7501V2.84988H6.91517C6.38532 2.84986 5.93412 2.84985 5.56369 2.88012C5.17453 2.91191 4.79594 2.98155 4.43401 3.16596C3.88834 3.44399 3.4447 3.88764 3.16667 4.43331C2.98226 4.79524 2.91262 5.17383 2.88083 5.563C2.85056 5.93341 2.85057 6.38456 2.85059 6.91439V17.0853C2.85057 17.6151 2.85056 18.0664 2.88083 18.4368C2.91262 18.8259 2.98226 19.2045 3.16667 19.5665C3.4447 20.1121 3.88834 20.5558 4.43401 20.8338C4.79594 21.0182 5.17453 21.0878 5.56369 21.1196C5.9341 21.1499 6.38525 21.1499 6.91507 21.1499H17.0859C17.6158 21.1499 18.067 21.1499 18.4374 21.1196C18.8266 21.0878 19.2052 21.0182 19.5671 20.8338C20.1128 20.5558 20.5564 20.1121 20.8344 19.5665C21.0189 19.2045 21.0885 18.8259 21.1203 18.4368C21.1505 18.0664 21.1505 17.6152 21.1505 17.0854V6.91447C21.1505 6.38465 21.1505 5.9334 21.1203 5.563C21.0885 5.17383 21.0189 4.79524 20.8344 4.43331C20.5564 3.88764 20.1128 3.44399 19.5671 3.16596C19.2052 2.98155 18.8266 2.91191 18.4374 2.88012C18.067 2.84985 17.6158 2.84986 17.086 2.84988H16.4003V1.75012C16.4003 1.25307 15.9974 0.850122 15.5003 0.850122C15.0033 0.850122 14.6003 1.25307 14.6003 1.75012V2.84988H9.40034V1.7501ZM14.6003 5.75012V4.64987H9.40034V5.7501C9.40034 6.24715 8.9974 6.6501 8.50035 6.6501C8.00329 6.6501 7.60035 6.24715 7.60035 5.7501V4.64987H6.5506C5.73604 4.64987 5.5422 4.66098 5.41068 4.70371C5.0758 4.81252 4.81325 5.07507 4.70444 5.40996C4.66171 5.54148 4.6506 5.73531 4.6506 6.54987V8.59985H19.3505V6.54987C19.3505 5.73531 19.3394 5.54148 19.2967 5.40996C19.1879 5.07507 18.9254 4.81252 18.5905 4.70371C18.4589 4.66098 18.2651 4.64987 17.4506 4.64987H16.4003V5.75012C16.4003 6.24718 15.9974 6.65012 15.5003 6.65012C15.0033 6.65012 14.6003 6.24718 14.6003 5.75012ZM19.3505 10.3999H4.6506V17.4499C4.6506 18.2644 4.66171 18.4583 4.70444 18.5898C4.81325 18.9247 5.0758 19.1872 5.41068 19.296C5.5422 19.3388 5.73604 19.3499 6.5506 19.3499H17.4506C18.2651 19.3499 18.4589 19.3388 18.5905 19.296C18.9254 19.1872 19.1879 18.9247 19.2967 18.5898C19.3394 18.4583 19.3505 18.2644 19.3505 17.4499V10.3999Z" fill="#27272A"/>
</svg>
