<svg width="24" height="24" viewBox="0 0 24 24" fill="none" xmlns="http://www.w3.org/2000/svg">
<path d="M19.0929 11.9922C19.0929 10.4093 19.0717 9.9151 18.8683 9.49902C18.6649 9.08292 18.2878 8.76175 17.0392 7.79004V7.79102L15.2609 6.4082C14.3261 5.68121 13.6863 5.18605 13.1506 4.86328C12.6354 4.55288 12.3024 4.45703 11.9933 4.45703C11.6843 4.45703 11.3513 4.55288 10.8361 4.86328C10.3004 5.18605 9.66053 5.68121 8.72576 6.4082L6.94744 7.79102C5.69882 8.76206 5.3218 9.08294 5.11833 9.49902C4.91496 9.9151 4.89372 10.4093 4.89372 11.9922V14.2236C4.89372 15.7156 4.89525 16.7443 4.99919 17.5176C5.09968 18.2648 5.28078 18.638 5.54119 18.8984C5.80161 19.1587 6.17495 19.339 6.92204 19.4395C7.69532 19.5434 8.72416 19.5459 10.216 19.5459H13.7707C15.2625 19.5459 16.2913 19.5434 17.0646 19.4395C17.8117 19.339 18.1851 19.1587 18.4455 18.8984C18.7059 18.638 18.887 18.2648 18.9875 17.5176C19.0914 16.7443 19.0929 15.7156 19.0929 14.2236V11.9922ZM20.8937 14.2236C20.8937 15.6646 20.8954 16.8358 20.7717 17.7568C20.6444 18.7038 20.3695 19.5202 19.7189 20.1709C19.0682 20.8216 18.2518 21.0963 17.3049 21.2236C16.3837 21.3474 15.2119 21.3457 13.7707 21.3457H10.216C8.77479 21.3457 7.60292 21.3474 6.68181 21.2236C5.73482 21.0963 4.91842 20.8216 4.26775 20.1709C3.61716 19.5202 3.34231 18.7038 3.21501 17.7568C3.09124 16.8358 3.09294 15.6646 3.09294 14.2236V11.9922C3.09294 10.5852 3.07181 9.58607 3.50115 8.70801C3.93055 7.8299 4.73268 7.23356 5.84294 6.37012L7.62029 4.9873C8.52084 4.28692 9.2585 3.71226 9.9074 3.32129C10.5768 2.91799 11.2358 2.65625 11.9933 2.65625C12.7509 2.65625 13.4099 2.91799 14.0793 3.32129C14.7282 3.71226 15.4658 4.28692 16.3664 4.9873L18.1447 6.37012C19.2533 7.23289 20.0562 7.82998 20.4855 8.70801C20.9149 9.58607 20.8937 10.5852 20.8937 11.9922V14.2236Z" fill="#27272A"/>
</svg>
