<svg width="24" height="24" viewBox="0 0 24 24" fill="none" xmlns="http://www.w3.org/2000/svg">
<path d="M15.5 0.850586C15.997 0.850611 16.4003 1.25307 16.4004 1.75V2.84961H17.0859C17.6156 2.8496 18.0672 2.84962 18.4375 2.87988C18.8264 2.91169 19.2047 2.98178 19.5664 3.16602C20.1121 3.44405 20.5559 3.88792 20.834 4.43359C21.0184 4.7955 21.0883 5.17435 21.1201 5.56348C21.1504 5.93382 21.1504 6.38539 21.1504 6.91504V17.0859C21.1504 17.6154 21.1503 18.0663 21.1201 18.4365C21.0883 18.8257 21.0184 19.2045 20.834 19.5664C20.5559 20.1121 20.1121 20.556 19.5664 20.834C19.2047 21.0182 18.8264 21.0883 18.4375 21.1201C18.0672 21.1504 17.6156 21.1504 17.0859 21.1504H6.91504C6.3853 21.1504 5.93385 21.1504 5.56348 21.1201C5.17432 21.0883 4.79553 21.0184 4.43359 20.834C3.88793 20.556 3.44405 20.1121 3.16602 19.5664C2.9817 19.2045 2.91265 18.8256 2.88086 18.4365C2.85062 18.0662 2.85057 17.6146 2.85059 17.085V6.91406C2.85057 6.38458 2.85063 5.93372 2.88086 5.56348C2.91265 5.1744 2.9817 4.79545 3.16602 4.43359C3.44405 3.88793 3.88793 3.44405 4.43359 3.16602C4.79553 2.9816 5.17432 2.91168 5.56348 2.87988C5.93387 2.84963 6.38527 2.8496 6.91504 2.84961H7.59961V1.75C7.59973 1.25304 8.00302 0.850586 8.5 0.850586C8.99697 0.850597 9.40027 1.25305 9.40039 1.75V2.84961H14.5996V1.75C14.5997 1.25306 15.003 0.850586 15.5 0.850586ZM6.5498 4.65039C5.7356 4.65039 5.54166 4.66137 5.41016 4.7041C5.07538 4.81296 4.81289 5.07535 4.7041 5.41016C4.66139 5.54167 4.65039 5.73553 4.65039 6.5498V8.59961H19.3506V6.5498C19.3506 5.7354 19.3386 5.54167 19.2959 5.41016C19.1871 5.0753 18.9247 4.8129 18.5898 4.7041C18.4583 4.66141 18.2644 4.65039 17.4502 4.65039H16.4004V5.75C16.4004 6.24704 15.997 6.65037 15.5 6.65039C15.0029 6.65039 14.5996 6.24706 14.5996 5.75V4.65039H9.40039V5.75C9.40039 6.24705 8.99705 6.65038 8.5 6.65039C8.00295 6.65039 7.59961 6.24706 7.59961 5.75V4.65039H6.5498Z" fill="#27272A"/>
</svg>
