<svg width="25" height="25" viewBox="0 0 25 25" fill="none" xmlns="http://www.w3.org/2000/svg">
<mask id="mask0_2408_45420" style="mask-type:luminance" maskUnits="userSpaceOnUse" x="2" y="2" width="21" height="21">
<path d="M22.7983 10.552H12.7237V14.5889H18.5126C18.4196 15.1602 18.2106 15.7223 17.9046 16.2347C17.554 16.8219 17.1206 17.2689 16.6763 17.6093C15.3456 18.6291 13.7941 18.8376 12.7166 18.8376C9.99479 18.8376 7.66915 17.0784 6.76885 14.688C6.73252 14.6013 6.70839 14.5116 6.67901 14.4231C6.48007 13.8147 6.37136 13.1704 6.37136 12.5007C6.37136 11.8037 6.48908 11.1365 6.7037 10.5064C7.55029 8.02124 9.92836 6.16505 12.7186 6.16505C13.2798 6.16505 13.8203 6.23186 14.3328 6.3651C15.5041 6.66962 16.3326 7.26936 16.8403 7.74375L19.9036 4.74379C18.0402 3.03527 15.6111 2 12.7135 2C10.3971 1.99995 8.25844 2.72168 6.5059 3.94144C5.08465 4.93062 3.91902 6.25502 3.13236 7.79316C2.40065 9.21933 2 10.7998 2 12.4991C2 14.1985 2.40127 15.7954 3.13297 17.2083V17.2179C3.90584 18.7179 5.03603 20.0095 6.40965 20.9942C7.60966 21.8544 9.7614 23 12.7135 23C14.4112 23 15.9158 22.6939 17.2427 22.1203C18.2 21.7065 19.0481 21.1668 19.816 20.4732C20.8306 19.5566 21.6252 18.423 22.1675 17.1187C22.7099 15.8144 23 14.3394 23 12.7403C23 11.9956 22.9252 11.2393 22.7983 10.5519V10.552Z" fill="white"/>
</mask>
<g mask="url(#mask0_2408_45420)">
<g filter="url(#filter0_f_2408_45420)">
<path d="M1.87891 12.5448C1.89004 14.2174 2.36663 15.943 3.08803 17.3361V17.3457C3.60927 18.3574 4.32166 19.1565 5.13306 19.9483L10.0337 18.1602C9.10654 17.6892 8.96506 17.4006 8.30043 16.874C7.62124 16.1891 7.11503 15.4029 6.79978 14.481H6.78708L6.79978 14.4714C6.59238 13.8626 6.57192 13.2164 6.56427 12.5448H1.87891Z" fill="url(#paint0_radial_2408_45420)"/>
</g>
<g filter="url(#filter1_f_2408_45420)">
<path d="M12.7578 1.89795C12.2734 3.59964 12.4586 5.25375 12.7578 6.21618C13.3171 6.21659 13.856 6.28327 14.3669 6.4161C15.5382 6.72061 16.3666 7.32037 16.8743 7.79475L20.016 4.71816C18.1549 3.01168 15.9151 1.90064 12.7578 1.89795Z" fill="url(#paint1_radial_2408_45420)"/>
</g>
<g filter="url(#filter2_f_2408_45420)">
<path d="M12.7465 1.88452C10.3706 1.88447 8.1771 2.62473 6.37957 3.8758C5.71215 4.34033 5.09967 4.87693 4.55429 5.47364C4.41142 6.81402 5.62382 8.46148 8.02476 8.44784C9.18967 7.09278 10.9126 6.21605 12.8301 6.21605C12.8319 6.21605 12.8336 6.2162 12.8353 6.2162L12.757 1.88483C12.7535 1.88483 12.7501 1.88452 12.7465 1.88452Z" fill="url(#paint2_radial_2408_45420)"/>
</g>
<g filter="url(#filter3_f_2408_45420)">
<path d="M20.5888 13.0298L18.4682 14.4866C18.3751 15.058 18.166 15.62 17.86 16.1325C17.5094 16.7196 17.076 17.1666 16.6318 17.5071C15.3038 18.5247 13.7564 18.7342 12.6792 18.7351C11.5658 20.6314 11.3707 21.5812 12.7575 23.1117C14.4737 23.1104 15.9951 22.8006 17.3371 22.2205C18.3072 21.8012 19.1667 21.2542 19.9448 20.5513C20.973 19.6224 21.7784 18.4735 22.3281 17.1517C22.8777 15.8299 23.1716 14.3353 23.1716 12.7147L20.5888 13.0298Z" fill="url(#paint3_radial_2408_45420)"/>
</g>
<g filter="url(#filter4_f_2408_45420)">
<path d="M12.6006 10.3729V14.7166H22.8036C22.8933 14.1217 23.1901 13.3519 23.1901 12.7147C23.1901 11.9699 23.1153 11.0603 22.9885 10.3729H12.6006Z" fill="#3086FF"/>
</g>
<g filter="url(#filter5_f_2408_45420)">
<path d="M4.6033 5.32031C3.97367 6.00921 3.43577 6.78029 3.00928 7.61419C2.27759 9.04036 1.87695 10.7742 1.87695 12.4735C1.87695 12.4974 1.87894 12.5209 1.87909 12.5448C2.20314 13.1661 6.35518 13.0471 6.56446 12.5448C6.5642 12.5213 6.56156 12.4985 6.56156 12.475C6.56156 11.778 6.67931 11.2643 6.89393 10.6342C7.1587 9.85693 7.57328 9.1412 8.1034 8.52454C8.22358 8.37111 8.54412 8.04129 8.63764 7.84345C8.67327 7.76809 8.57297 7.7258 8.56736 7.69927C8.56108 7.66961 8.42661 7.69346 8.39648 7.67137C8.30082 7.6012 8.1114 7.56456 7.99637 7.53199C7.75052 7.46238 7.34308 7.30887 7.11677 7.14973C6.40142 6.64671 5.28504 6.04586 4.6033 5.32031Z" fill="url(#paint4_radial_2408_45420)"/>
</g>
<g filter="url(#filter6_f_2408_45420)">
<path d="M7.1326 7.70225C8.79143 8.70709 9.26848 7.19505 10.3714 6.7219L8.45285 2.74341C7.74712 3.04003 7.08034 3.40855 6.46167 3.83914C5.53774 4.48219 4.72184 5.26689 4.04785 6.1599L7.1326 7.70225Z" fill="url(#paint5_radial_2408_45420)"/>
</g>
<g filter="url(#filter7_f_2408_45420)">
<path d="M7.80769 17.8527C5.58093 18.6566 5.23232 18.6855 5.02734 20.0655C5.41904 20.4477 5.83988 20.8013 6.2871 21.1218C7.48711 21.982 9.79541 23.1277 12.7475 23.1277C12.751 23.1277 12.7543 23.1274 12.7578 23.1274V18.6584C12.7555 18.6584 12.753 18.6585 12.7507 18.6585C11.6453 18.6585 10.7619 18.3682 9.85616 17.8632C9.63285 17.7387 9.22769 18.073 9.02174 17.9236C8.73768 17.7175 8.05407 18.1012 7.80769 17.8527Z" fill="url(#paint6_radial_2408_45420)"/>
</g>
<g opacity="0.5" filter="url(#filter8_f_2408_45420)">
<path d="M11.4531 18.5176V23.0499C11.8662 23.0983 12.296 23.1277 12.747 23.1277C13.199 23.1277 13.6364 23.1045 14.0613 23.0618V18.5481C13.5851 18.6295 13.1366 18.6585 12.7502 18.6585C12.3052 18.6585 11.8724 18.6067 11.4531 18.5176Z" fill="url(#paint7_linear_2408_45420)"/>
</g>
</g>
<defs>
<filter id="filter0_f_2408_45420" x="1.67325" y="12.3391" width="8.56659" height="7.81488" filterUnits="userSpaceOnUse" color-interpolation-filters="sRGB">
<feFlood flood-opacity="0" result="BackgroundImageFix"/>
<feBlend mode="normal" in="SourceGraphic" in2="BackgroundImageFix" result="shape"/>
<feGaussianBlur stdDeviation="0.10283" result="effect1_foregroundBlur_2408_45420"/>
</filter>
<filter id="filter1_f_2408_45420" x="12.2543" y="1.69229" width="7.96698" height="6.30817" filterUnits="userSpaceOnUse" color-interpolation-filters="sRGB">
<feFlood flood-opacity="0" result="BackgroundImageFix"/>
<feBlend mode="normal" in="SourceGraphic" in2="BackgroundImageFix" result="shape"/>
<feGaussianBlur stdDeviation="0.10283" result="effect1_foregroundBlur_2408_45420"/>
</filter>
<filter id="filter2_f_2408_45420" x="4.33731" y="1.67886" width="8.70331" height="6.97467" filterUnits="userSpaceOnUse" color-interpolation-filters="sRGB">
<feFlood flood-opacity="0" result="BackgroundImageFix"/>
<feBlend mode="normal" in="SourceGraphic" in2="BackgroundImageFix" result="shape"/>
<feGaussianBlur stdDeviation="0.10283" result="effect1_foregroundBlur_2408_45420"/>
</filter>
<filter id="filter3_f_2408_45420" x="11.5746" y="12.5091" width="11.8029" height="10.8083" filterUnits="userSpaceOnUse" color-interpolation-filters="sRGB">
<feFlood flood-opacity="0" result="BackgroundImageFix"/>
<feBlend mode="normal" in="SourceGraphic" in2="BackgroundImageFix" result="shape"/>
<feGaussianBlur stdDeviation="0.10283" result="effect1_foregroundBlur_2408_45420"/>
</filter>
<filter id="filter4_f_2408_45420" x="12.3949" y="10.1673" width="11.0012" height="4.75495" filterUnits="userSpaceOnUse" color-interpolation-filters="sRGB">
<feFlood flood-opacity="0" result="BackgroundImageFix"/>
<feBlend mode="normal" in="SourceGraphic" in2="BackgroundImageFix" result="shape"/>
<feGaussianBlur stdDeviation="0.10283" result="effect1_foregroundBlur_2408_45420"/>
</filter>
<filter id="filter5_f_2408_45420" x="1.67129" y="5.11465" width="7.17987" height="8.05829" filterUnits="userSpaceOnUse" color-interpolation-filters="sRGB">
<feFlood flood-opacity="0" result="BackgroundImageFix"/>
<feBlend mode="normal" in="SourceGraphic" in2="BackgroundImageFix" result="shape"/>
<feGaussianBlur stdDeviation="0.10283" result="effect1_foregroundBlur_2408_45420"/>
</filter>
<filter id="filter6_f_2408_45420" x="2.60198" y="1.29754" width="9.21499" height="8.18825" filterUnits="userSpaceOnUse" color-interpolation-filters="sRGB">
<feFlood flood-opacity="0" result="BackgroundImageFix"/>
<feBlend mode="normal" in="SourceGraphic" in2="BackgroundImageFix" result="shape"/>
<feGaussianBlur stdDeviation="0.722936" result="effect1_foregroundBlur_2408_45420"/>
</filter>
<filter id="filter7_f_2408_45420" x="4.82168" y="17.6292" width="8.14179" height="5.70417" filterUnits="userSpaceOnUse" color-interpolation-filters="sRGB">
<feFlood flood-opacity="0" result="BackgroundImageFix"/>
<feBlend mode="normal" in="SourceGraphic" in2="BackgroundImageFix" result="shape"/>
<feGaussianBlur stdDeviation="0.10283" result="effect1_foregroundBlur_2408_45420"/>
</filter>
<filter id="filter8_f_2408_45420" x="11.2475" y="18.3119" width="3.01972" height="5.02143" filterUnits="userSpaceOnUse" color-interpolation-filters="sRGB">
<feFlood flood-opacity="0" result="BackgroundImageFix"/>
<feBlend mode="normal" in="SourceGraphic" in2="BackgroundImageFix" result="shape"/>
<feGaussianBlur stdDeviation="0.10283" result="effect1_foregroundBlur_2408_45420"/>
</filter>
<radialGradient id="paint0_radial_2408_45420" cx="0" cy="0" r="1" gradientTransform="matrix(-0.436381 -10.4579 15.6897 -0.62757 9.93561 19.7908)" gradientUnits="userSpaceOnUse">
<stop offset="0.141612" stop-color="#1ABD4D"/>
<stop offset="0.247515" stop-color="#6EC30D"/>
<stop offset="0.311547" stop-color="#8AC502"/>
<stop offset="0.366013" stop-color="#A2C600"/>
<stop offset="0.445673" stop-color="#C8C903"/>
<stop offset="0.540305" stop-color="#EBCB03"/>
<stop offset="0.615636" stop-color="#F7CD07"/>
<stop offset="0.699345" stop-color="#FDCD04"/>
<stop offset="0.771242" stop-color="#FDCE05"/>
<stop offset="0.860566" stop-color="#FFCE0A"/>
</radialGradient>
<radialGradient id="paint1_radial_2408_45420" cx="0" cy="0" r="1" gradientTransform="matrix(7.41096 -1.78112e-05 -1.04164e-05 9.3706 19.7221 7.57215)" gradientUnits="userSpaceOnUse">
<stop offset="0.408458" stop-color="#FB4E5A"/>
<stop offset="1" stop-color="#FF4540"/>
</radialGradient>
<radialGradient id="paint2_radial_2408_45420" cx="0" cy="0" r="1" gradientTransform="matrix(-10.3833 5.63055 7.80391 13.7952 15.6742 0.528094)" gradientUnits="userSpaceOnUse">
<stop offset="0.231273" stop-color="#FF4541"/>
<stop offset="0.311547" stop-color="#FF4540"/>
<stop offset="0.457516" stop-color="#FF4640"/>
<stop offset="0.540305" stop-color="#FF473F"/>
<stop offset="0.699346" stop-color="#FF5138"/>
<stop offset="0.771242" stop-color="#FF5B33"/>
<stop offset="0.860566" stop-color="#FF6C29"/>
<stop offset="1" stop-color="#FF8C18"/>
</radialGradient>
<radialGradient id="paint3_radial_2408_45420" cx="0" cy="0" r="1" gradientTransform="matrix(-18.8304 -24.0666 -9.07344 6.80533 12.9119 21.7525)" gradientUnits="userSpaceOnUse">
<stop offset="0.131546" stop-color="#0CBA65"/>
<stop offset="0.209784" stop-color="#0BB86D"/>
<stop offset="0.297297" stop-color="#09B479"/>
<stop offset="0.396257" stop-color="#08AD93"/>
<stop offset="0.477124" stop-color="#0AA6A9"/>
<stop offset="0.568425" stop-color="#0D9CC6"/>
<stop offset="0.667385" stop-color="#1893DD"/>
<stop offset="0.768727" stop-color="#258BF1"/>
<stop offset="0.858506" stop-color="#3086FF"/>
</radialGradient>
<radialGradient id="paint4_radial_2408_45420" cx="0" cy="0" r="1" gradientTransform="matrix(-1.33258 11.2456 15.8814 1.80397 11.8372 3.86793)" gradientUnits="userSpaceOnUse">
<stop offset="0.366013" stop-color="#FF4E3A"/>
<stop offset="0.457516" stop-color="#FF8A1B"/>
<stop offset="0.540305" stop-color="#FFA312"/>
<stop offset="0.615636" stop-color="#FFB60C"/>
<stop offset="0.771242" stop-color="#FFCD0A"/>
<stop offset="0.860566" stop-color="#FECF0A"/>
<stop offset="0.915033" stop-color="#FECF08"/>
<stop offset="1" stop-color="#FDCD01"/>
</radialGradient>
<radialGradient id="paint5_radial_2408_45420" cx="0" cy="0" r="1" gradientTransform="matrix(-3.85186 4.17093 -12.0157 -10.637 9.96366 3.75128)" gradientUnits="userSpaceOnUse">
<stop offset="0.315904" stop-color="#FF4C3C"/>
<stop offset="0.603818" stop-color="#FF692C"/>
<stop offset="0.726837" stop-color="#FF7825"/>
<stop offset="0.884534" stop-color="#FF8D1B"/>
<stop offset="1" stop-color="#FF9F13"/>
</radialGradient>
<radialGradient id="paint6_radial_2408_45420" cx="0" cy="0" r="1" gradientTransform="matrix(-10.3833 -5.63055 7.80391 -13.7952 15.6749 24.4203)" gradientUnits="userSpaceOnUse">
<stop offset="0.231273" stop-color="#0FBC5F"/>
<stop offset="0.311547" stop-color="#0FBC5F"/>
<stop offset="0.366013" stop-color="#0FBC5E"/>
<stop offset="0.457516" stop-color="#0FBC5D"/>
<stop offset="0.540305" stop-color="#12BC58"/>
<stop offset="0.699346" stop-color="#28BF3C"/>
<stop offset="0.771242" stop-color="#38C02B"/>
<stop offset="0.860566" stop-color="#52C218"/>
<stop offset="0.915033" stop-color="#67C30F"/>
<stop offset="1" stop-color="#86C504"/>
</radialGradient>
<linearGradient id="paint7_linear_2408_45420" x1="11.4531" y1="20.8226" x2="14.0613" y2="20.8226" gradientUnits="userSpaceOnUse">
<stop stop-color="#0FBC5C"/>
<stop offset="1" stop-color="#0CBA65"/>
</linearGradient>
</defs>
</svg>
