<svg width="24" height="24" viewBox="0 0 24 24" fill="none" xmlns="http://www.w3.org/2000/svg">
<path d="M8.88571 20.3499C7.89905 20.3499 7.24232 19.6936 7.24216 18.7073C7.24216 16.7996 8.40209 14.8306 10.5107 13.5883C11.8512 12.7974 13.5686 12.2992 15.621 12.2992V12.3041C20.9089 12.3041 23.9999 15.5851 23.9999 18.7073C23.9997 19.6936 23.343 20.3499 22.3564 20.3499H8.88571ZM1.4707 20.345C0.591062 20.3449 0 19.7584 0 18.8743C0.000114235 16.0826 2.76955 13.1373 7.50778 13.1371C7.89402 13.1371 8.26665 13.1653 8.62497 13.2025C8.60175 13.2211 8.57368 13.2448 8.54587 13.268L8.54196 13.2631C6.82435 14.7148 5.84177 16.697 5.84177 18.7025C5.84179 19.3213 6.00023 19.8797 6.28416 20.345H1.4707ZM15.2958 14.1039C13.6907 14.1528 12.4019 14.5622 11.4257 15.1381L11.4248 15.139C9.8424 16.0713 9.11003 17.4155 9.04782 18.5501H22.1952C22.087 16.7014 20.0842 14.1039 15.621 14.1039H15.2958ZM4.73631 15.4017C2.88246 16.1038 1.98024 17.4676 1.82519 18.5452H4.04686C4.06825 17.457 4.30679 16.3947 4.73631 15.4017ZM7.51267 5.38621C9.24014 5.3863 10.6406 6.78624 10.6406 8.51313C10.6404 10.2398 9.24002 11.64 7.51267 11.64C5.78524 11.64 4.38495 10.2399 4.38475 8.51313C4.38475 6.78619 5.78511 5.38621 7.51267 5.38621ZM17.3036 6.96725C17.217 6.11545 16.497 5.44969 15.621 5.44969C14.6872 5.44989 13.9306 6.20697 13.9306 7.1401L13.9394 7.31295C14.0261 8.16436 14.7454 8.82934 15.621 8.82953C16.5557 8.82953 17.3122 8.07237 17.3124 7.1401L17.3036 6.96725ZM6.19138 8.64887C6.25956 9.31764 6.82501 9.84026 7.51267 9.84026L7.64841 9.83342C8.31818 9.76538 8.8406 9.19965 8.84079 8.51313L8.83395 8.37739C8.77047 7.75338 8.2738 7.25631 7.64841 7.19283L7.51267 7.18599C6.77871 7.18599 6.18455 7.78079 6.18455 8.51313L6.19138 8.64887ZM19.1122 7.1401C19.112 9.06733 17.549 10.6293 15.621 10.6293C13.6933 10.6291 12.131 9.0672 12.1308 7.1401C12.1308 5.21283 13.6931 3.65011 15.621 3.6499C17.5491 3.6499 19.1122 5.21271 19.1122 7.1401Z" fill="#27272A"/>
</svg>
