<svg width="24" height="24" viewBox="0 0 24 24" fill="none" xmlns="http://www.w3.org/2000/svg">
<path d="M14.1207 8.96982C14.1207 7.79843 13.1714 6.84914 12 6.84908C10.8286 6.84908 9.87834 7.7984 9.87828 8.96982C9.87828 10.1413 10.8285 11.0915 12 11.0915C13.1714 11.0915 14.1207 10.1412 14.1207 8.96982ZM12 14.4236C9.82307 14.4236 7.89719 15.471 6.67745 17.0917C6.55727 17.2514 6.53122 17.3647 6.52752 17.438C6.52367 17.5155 6.54166 17.6238 6.62419 17.7733C6.80467 18.1003 7.22293 18.4962 7.8769 18.8899C9.1799 19.6743 10.9586 20.1811 12 20.1811C13.067 20.1811 14.9006 19.7234 16.2148 18.9747C16.8778 18.597 17.2825 18.2156 17.4478 17.8996C17.5218 17.7582 17.5396 17.6457 17.5307 17.5484C17.5215 17.4493 17.478 17.2983 17.3225 17.0917C16.103 15.4712 14.1734 14.4236 12 14.4236ZM22 12C22 17.4282 17.6742 21.8427 12.2821 21.9921C12.1852 21.9967 12.0911 22 12 22C6.47737 22 2 17.5226 2 12C2 6.47737 6.47737 2 12 2C17.5226 2 22 6.47737 22 12ZM15.9386 8.96982C15.9386 10.7057 14.8157 12.1776 13.2567 12.7023C15.5082 13.0388 17.4681 14.2617 18.7755 15.9988C18.846 16.0925 18.9103 16.1884 18.9688 16.2859C19.7371 15.0393 20.1811 13.5718 20.1811 12C20.1811 7.48148 16.5185 3.8189 12 3.8189C7.48148 3.8189 3.8189 7.48148 3.8189 12C3.8189 13.5729 4.2629 15.0417 5.03216 16.2888C5.08932 16.1898 5.15361 16.093 5.2245 15.9988C6.53177 14.2618 8.48911 13.0388 10.7424 12.7023C9.18372 12.1774 8.06037 10.7055 8.06037 8.96982C8.06042 6.79428 9.82445 5.03117 12 5.03117C14.1755 5.03123 15.9386 6.79432 15.9386 8.96982Z" fill="#27272A"/>
</svg>
