<svg width="24" height="24" viewBox="0 0 24 24" fill="none" xmlns="http://www.w3.org/2000/svg">
<path d="M11.9941 2.65625C12.7516 2.65631 13.4108 2.91804 14.0801 3.32129C14.7289 3.71225 15.4668 4.28703 16.3672 4.9873L18.1455 6.37012C19.2539 7.23277 20.057 7.83005 20.4863 8.70801C20.9155 9.586 20.8945 10.5854 20.8945 11.9922V14.2236C20.8945 15.6644 20.8962 16.8359 20.7725 17.7568C20.6452 18.7037 20.3703 19.5203 19.7197 20.1709C19.0691 20.8215 18.2526 21.0963 17.3057 21.2236C16.3846 21.3474 15.2126 21.3457 13.7715 21.3457H10.2168C8.77575 21.3457 7.60369 21.3474 6.68262 21.2236C5.73575 21.0963 4.91918 20.8214 4.26855 20.1709C3.61802 19.5203 3.34313 18.7037 3.21582 17.7568C3.09205 16.8359 3.09375 15.6644 3.09375 14.2236V11.9922C3.09375 10.5853 3.07266 9.58605 3.50195 8.70801C3.93136 7.8299 4.73349 7.23356 5.84375 6.37012L7.62109 4.9873C8.52163 4.28694 9.25932 3.71225 9.9082 3.32129C10.5776 2.91802 11.2366 2.65625 11.9941 2.65625Z" fill="#27272A"/>
</svg>
