<svg width="32" height="32" viewBox="0 0 32 32" fill="none" xmlns="http://www.w3.org/2000/svg">
<path fill-rule="evenodd" clip-rule="evenodd" d="M15.9999 10.1327C12.3916 10.1327 9.46658 13.0578 9.46658 16.6661C9.46658 20.2743 12.3916 23.1994 15.9999 23.1994C19.6081 23.1994 22.5332 20.2743 22.5332 16.6661C22.5332 13.0578 19.6081 10.1327 15.9999 10.1327ZM11.8666 16.6661C11.8666 14.3833 13.7171 12.5327 15.9999 12.5327C18.2827 12.5327 20.1332 14.3833 20.1332 16.6661C20.1332 18.9488 18.2827 20.7994 15.9999 20.7994C13.7171 20.7994 11.8666 18.9488 11.8666 16.6661Z" fill="#27272A"/>
<path fill-rule="evenodd" clip-rule="evenodd" d="M14.2126 3.13288C13.5959 3.13234 13.0758 3.13188 12.5782 3.26575C12.1409 3.38342 11.7277 3.577 11.3574 3.83766C10.936 4.1342 10.6034 4.53413 10.2091 5.00826L8.43897 7.13295L7.55325 7.13295C6.84675 7.13293 6.24518 7.13291 5.75127 7.17327C5.23239 7.21566 4.7276 7.30851 4.24502 7.55439C3.51746 7.9251 2.92594 8.51663 2.55523 9.24419C2.30935 9.72676 2.2165 10.2316 2.17411 10.7504C2.13376 11.2443 2.13377 11.8459 2.13379 12.5523V22.7802C2.13377 23.4866 2.13376 24.0882 2.17411 24.5821C2.2165 25.101 2.30935 25.6058 2.55523 26.0884C2.92594 26.8159 3.51746 27.4075 4.24502 27.7782C4.7276 28.0241 5.23239 28.1169 5.75127 28.1593C6.24515 28.1997 6.8467 28.1996 7.55316 28.1996H24.4476C25.154 28.1996 25.7557 28.1997 26.2495 28.1593C26.7684 28.1169 27.2732 28.0241 27.7558 27.7782C28.4833 27.4075 29.0749 26.8159 29.4456 26.0884C29.6915 25.6058 29.7843 25.101 29.8267 24.5821C29.8671 24.0882 29.867 23.4867 29.867 22.7802V12.5524C29.867 11.846 29.8671 11.2443 29.8267 10.7504C29.7843 10.2316 29.6915 9.72676 29.4456 9.24419C29.0749 8.51663 28.4833 7.9251 27.7558 7.55439C27.2732 7.30851 26.7684 7.21566 26.2495 7.17327C25.7556 7.13291 25.1541 7.13293 24.4476 7.13295L23.563 7.13295L21.7916 5.0075C21.3972 4.53355 21.0646 4.13378 20.6433 3.83736C20.2731 3.57681 19.8599 3.38331 19.4227 3.2657C18.9253 3.13188 18.4052 3.13234 17.7887 3.13288L14.2126 3.13288ZM13.3273 5.5555C13.4298 5.53734 13.5505 5.53304 14.0826 5.53304H17.9187C18.4507 5.53304 18.5714 5.53734 18.6739 5.55549C18.9284 5.60054 19.1664 5.71202 19.364 5.87867C19.4436 5.94581 19.5241 6.03575 19.8647 6.44439L21.7994 8.76559L21.8153 8.78479C21.8721 8.85349 21.979 8.98291 22.1097 9.09315C22.3611 9.30524 22.664 9.44714 22.9879 9.50447C23.1563 9.53427 23.3242 9.53352 23.4133 9.53312L23.4382 9.53304H24.9338C26.0198 9.53304 26.2783 9.54785 26.4536 9.60482C26.9001 9.7499 27.2502 10.1 27.3953 10.5465C27.4523 10.7218 27.4671 10.9803 27.4671 12.0664V23.2664C27.4671 24.3525 27.4523 24.6109 27.3953 24.7863C27.2502 25.2328 26.9001 25.5828 26.4536 25.7279C26.2783 25.7849 26.0198 25.7997 24.9338 25.7997H7.06715C5.98107 25.7997 5.72263 25.7849 5.54727 25.7279C5.10076 25.5828 4.75069 25.2328 4.60561 24.7863C4.54863 24.6109 4.53383 24.3525 4.53383 23.2664V12.0664C4.53383 10.9803 4.54863 10.7218 4.60561 10.5465C4.75069 10.1 5.10076 9.7499 5.54727 9.60482C5.72263 9.54785 5.98107 9.53304 7.06715 9.53304H8.56393L8.58885 9.53312C8.67796 9.53352 8.84584 9.53427 9.01427 9.50446C9.33822 9.4471 9.64126 9.30514 9.89269 9.09297C10.0234 8.98266 10.1303 8.85319 10.187 8.78448L10.2029 8.76528L12.1363 6.44476C12.4769 6.03595 12.5575 5.94598 12.6371 5.87881C12.8346 5.7121 13.0727 5.60057 13.3273 5.5555Z" fill="#27272A"/>
</svg>
