<svg width="24" height="24" viewBox="0 0 24 24" fill="none" xmlns="http://www.w3.org/2000/svg">
<path d="M12.0003 2.59961C12.4974 2.59961 12.9003 3.00255 12.9003 3.49961V12.8273L15.8639 9.8637C16.2154 9.51223 16.7852 9.51223 17.1367 9.8637C17.4882 10.2152 17.4882 10.785 17.1367 11.1365L12.6367 15.6365C12.2853 15.988 11.7154 15.988 11.3639 15.6365L6.86396 11.1365C6.51249 10.785 6.51249 10.2152 6.86396 9.8637C7.21543 9.51223 7.78528 9.51223 8.13675 9.8637L11.1003 12.8273V3.49961C11.1003 3.00255 11.5033 2.59961 12.0003 2.59961Z" fill="#27272A"/>
<path d="M21.1505 14.8997C21.1505 14.4026 20.7476 13.9997 20.2505 13.9997C19.7535 13.9997 19.3506 14.4026 19.3506 14.8997V17.4498C19.3506 18.2644 19.3395 18.4582 19.2967 18.5897C19.1879 18.9246 18.9254 19.1872 18.5905 19.296C18.459 19.3387 18.2651 19.3498 17.4506 19.3498H6.5506C5.73604 19.3498 5.54221 19.3387 5.41069 19.296C5.0758 19.1872 4.81325 18.9246 4.70444 18.5897C4.66171 18.4582 4.65061 18.2644 4.65061 17.4498V14.8997C4.65061 14.4027 4.24766 13.9997 3.7506 13.9997C3.25354 13.9997 2.85059 14.4027 2.85059 14.8997V17.0852C2.85058 17.615 2.85057 18.0663 2.88083 18.4367C2.91262 18.8259 2.98226 19.2044 3.16667 19.5664C3.4447 20.112 3.88835 20.5557 4.43401 20.8337C4.79595 21.0181 5.17454 21.0878 5.5637 21.1196C5.93411 21.1498 6.38526 21.1498 6.9151 21.1498H17.086C17.6158 21.1498 18.067 21.1498 18.4374 21.1196C18.8266 21.0878 19.2052 21.0181 19.5671 20.8337C20.1128 20.5557 20.5564 20.112 20.8345 19.5664C21.0189 19.2044 21.0885 18.8259 21.1203 18.4367C21.1506 18.0663 21.1506 17.6151 21.1505 17.0853V14.8997Z" fill="#27272A"/>
</svg>
