<svg width="24" height="24" viewBox="0 0 24 24" fill="none" xmlns="http://www.w3.org/2000/svg">
<path fill-rule="evenodd" clip-rule="evenodd" d="M7.73723 12.7065C7.31015 12.3491 6.68843 12.3491 6.26135 12.7065C6.07473 12.8626 5.97033 13.0739 5.86981 13.2894C5.59633 13.8753 5.49279 14.0928 5.36928 14.285C5.09025 14.7192 4.72112 15.0883 4.28691 15.3673C4.09472 15.4908 3.8773 15.5944 3.29131 15.8679C3.07581 15.9684 2.86456 16.0728 2.70842 16.2594C2.3511 16.6865 2.3511 17.3082 2.70842 17.7353C2.86456 17.9219 3.07581 18.0263 3.29131 18.1268C3.8773 18.4003 4.09472 18.5038 4.28691 18.6273C4.72112 18.9064 5.09025 19.2755 5.36928 19.7097C5.49279 19.9019 5.59633 20.1193 5.86981 20.7053C5.97032 20.9208 6.07474 21.1321 6.26135 21.2882C6.68843 21.6455 7.31015 21.6455 7.73723 21.2882C7.92385 21.1321 8.02825 20.9208 8.12876 20.7053C8.40225 20.1193 8.50579 19.9019 8.6293 19.7097C8.90833 19.2755 9.27746 18.9064 9.71167 18.6273C9.90386 18.5038 10.1213 18.4003 10.7073 18.1268C10.9228 18.0263 11.134 17.9219 11.2902 17.7353C11.6475 17.3082 11.6475 16.6865 11.2902 16.2594C11.134 16.0728 10.9228 15.9684 10.7073 15.8679C10.1213 15.5944 9.90386 15.4908 9.71167 15.3673C9.27746 15.0883 8.90833 14.7192 8.6293 14.285C8.50579 14.0928 8.40225 13.8753 8.12876 13.2894C8.02825 13.0739 7.92385 12.8626 7.73723 12.7065ZM6.88356 15.2581C6.92349 15.1959 6.96172 15.1327 6.99929 15.0671C7.03686 15.1327 7.07509 15.1959 7.11501 15.2581C7.53356 15.9094 8.08725 16.4631 8.73856 16.8816C8.80069 16.9215 8.86394 16.9598 8.92955 16.9973C8.86394 17.0349 8.80069 17.0731 8.73856 17.1131C8.08725 17.5316 7.53356 18.0853 7.11501 18.7366C7.07509 18.7987 7.03686 18.862 6.99929 18.9276C6.96172 18.862 6.92349 18.7987 6.88356 18.7366C6.46502 18.0853 5.91133 17.5316 5.26002 17.1131C5.19789 17.0731 5.13464 17.0349 5.06903 16.9973C5.13464 16.9598 5.19789 16.9215 5.26002 16.8816C5.91133 16.4631 6.46502 15.9094 6.88356 15.2581Z" fill="#27272A"/>
<path fill-rule="evenodd" clip-rule="evenodd" d="M8.7824 7.51823C8.45319 7.68231 8.0195 7.93141 7.78899 8.37629C7.64701 8.65031 7.57601 8.95028 7.57599 9.25026C7.57601 9.55023 7.64701 9.8502 7.78899 10.1242C8.0195 10.5691 8.45319 10.8182 8.7824 10.9823C9.07779 11.1295 9.45817 11.2846 9.90197 11.4604L10.9453 11.8719C11.4865 12.0853 11.9149 12.5138 12.1284 13.055L12.4748 13.9334C12.678 14.4483 12.8531 14.8867 13.0182 15.2181C13.1823 15.5473 13.4314 15.981 13.8763 16.2115C14.1503 16.3535 14.4503 16.4243 14.7504 16.4243C15.0505 16.4243 15.3504 16.3535 15.6245 16.2115C16.0693 15.981 16.3184 15.5473 16.4825 15.2181C16.6477 14.8867 16.8227 14.4483 17.0259 13.9334L17.3724 13.055C17.5858 12.5138 18.0142 12.0853 18.5555 11.8719L19.5988 11.4604C20.0426 11.2846 20.423 11.1295 20.7183 10.9823C21.0476 10.8182 21.4812 10.5691 21.7118 10.1242C21.8537 9.8502 21.9247 9.55023 21.9248 9.25026C21.9247 8.95028 21.8537 8.65031 21.7118 8.37629C21.4812 7.93141 21.0476 7.68231 20.7183 7.51823C20.423 7.371 20.0426 7.21595 19.5988 7.0401L18.5555 6.62862C18.0142 6.41517 17.5858 5.98676 17.3724 5.44554L17.0259 4.5671C16.8227 4.05219 16.6477 3.61381 16.4825 3.2824C16.3184 2.9532 16.0693 2.51951 15.6245 2.289C15.3504 2.147 15.0505 2.07616 14.7504 2.07617C14.4503 2.07616 14.1503 2.147 13.8763 2.289C13.4314 2.51951 13.1823 2.9532 13.0182 3.2824C12.8531 3.61381 12.678 4.05219 12.4748 4.5671L12.1284 5.44554C11.9149 5.98676 11.4865 6.41517 10.9453 6.62862L9.90197 7.0401C9.45817 7.21595 9.07779 7.371 8.7824 7.51823ZM13.973 5.67456L14.6573 3.93929C14.6741 3.89673 14.7042 3.87598 14.7504 3.87598C14.7965 3.87598 14.8266 3.89673 14.8434 3.93929L15.5278 5.67456C15.7291 6.18202 15.8952 6.573 16.1326 6.91385C16.3944 7.28727 16.7199 7.61201 17.0939 7.87306C17.427 8.10364 17.8083 8.26716 18.2993 8.46236L20.0615 9.15734C20.104 9.17413 20.1248 9.2042 20.1248 9.25037C20.1248 9.29654 20.104 9.32661 20.0615 9.3434L18.2993 10.0384C17.8083 10.2336 17.427 10.3971 17.0939 10.6277C16.7199 10.8887 16.3944 11.2135 16.1326 11.5869C15.8952 11.9277 15.7291 12.3187 15.5278 12.8262L14.8434 14.5615C14.8266 14.604 14.7965 14.6248 14.7504 14.6248C14.7042 14.6248 14.6741 14.604 14.6573 14.5615L13.973 12.8262C13.7716 12.3187 13.6055 11.9277 13.3682 11.5869C13.1063 11.2135 12.7809 10.8887 12.4069 10.6277C12.0737 10.3971 11.6924 10.2336 11.2015 10.0384L9.43929 9.3434C9.39673 9.32661 9.37598 9.29654 9.37598 9.25037C9.37598 9.2042 9.39673 9.17413 9.43929 9.15734L11.2015 8.46236C11.6924 8.26716 12.0737 8.10364 12.4069 7.87306C12.7809 7.61201 13.1063 7.28727 13.3682 6.91385C13.6055 6.573 13.7716 6.18202 13.973 5.67456Z" fill="#27272A"/>
</svg>
