<svg width="40" height="40" viewBox="66 22 20 20" fill="none" xmlns="http://www.w3.org/2000/svg">
  <path fill-rule="evenodd" clip-rule="evenodd" d="M66.0995 32.0001C66.0995 26.5325 70.5319 22.1001 75.9994 22.1001C81.467 22.1001 85.8994 26.5325 85.8994 32.0001C85.8994 37.4677 81.467 41.9001 75.9994 41.9001C70.5319 41.9001 66.0995 37.4677 66.0995 32.0001ZM76.9994 28C76.9994 28.5523 76.5517 29 75.9994 29C75.4471 29 74.9994 28.5523 74.9994 28C74.9994 27.4477 75.4471 27 75.9994 27C76.5517 27 76.9994 27.4477 76.9994 28ZM75.9995 30.6C76.4966 30.6 76.8995 31.0029 76.8995 31.5V36C76.8995 36.4971 76.4966 36.9 75.9995 36.9C75.5025 36.9 75.0995 36.4971 75.0995 36V31.5C75.0995 31.0029 75.5025 30.6 75.9995 30.6Z" fill="#27272A"/>
</svg>
